<?xml version="1.0" encoding="UTF-8"?>
<svg width="345px" height="105px" viewBox="0 0 345 105" version="1.1" xmlns="http://www.w3.org/2000/svg" xmlns:xlink="http://www.w3.org/1999/xlink">
    <!-- Generator: Sketch 50.2 (55047) - http://www.bohemiancoding.com/sketch -->
    <title>logos/logo-inv</title>
    <desc>Created with Sketch.</desc>
    <defs>
        <polygon id="path-1" points="0.724207054 1.16875 14.1596236 1.16875 14.1596236 14.6206988 0.724207054 14.6206988"></polygon>
    </defs>
    <g id="logos/logo-inv" stroke="none" stroke-width="1" fill="none" fill-rule="evenodd">
        <path d="M114.361892,8.4666009 C114.361892,11.0374056 112.291825,13.1420545 109.762019,13.1420545 L76.6670373,13.1420545 C74.1372313,13.1420545 72.0671642,11.0374056 72.0671642,8.4666009 C72.0671642,5.89453294 74.1372313,3.78988402 76.6670373,3.78988402 L109.762019,3.78988402 C112.291825,3.78988402 114.361892,5.89453294 114.361892,8.4666009" id="Fill-1" fill="#ED975C"></path>
        <g id="Group-5" transform="translate(318.000000, 0.000000)">
            <mask id="mask-2" fill="white">
                <use xlink:href="#path-1"></use>
            </mask>
            <g id="Clip-4"></g>
            <path d="M7.386,14.61975 C11.0485,14.68225 14.1485,11.6485 14.15725,7.986 C14.256,4.32975 11.261,1.21475 7.506,1.1685 C3.8235,1.1235 0.80975,4.10975 0.726,7.731 C0.641,11.4485 3.5885,14.556 7.386,14.61975" id="Fill-3" fill="#ED975C" mask="url(#mask-2)"></path>
        </g>
        <path d="M199.294287,20.2127148 C196.31841,20.2127148 193.88428,22.6887723 193.88428,25.7143631 L193.88428,54.437894 C193.88428,63.273377 186.839093,70.4362578 178.146302,70.4362578 C169.455996,70.4362578 162.41081,63.273377 162.41081,54.437894 L162.41081,25.7143631 C162.41081,22.6887723 159.976679,20.2127148 157.000802,20.2127148 C154.023683,20.2127148 151.589552,22.6887723 151.589552,25.7143631 L151.589552,54.437894 C151.589552,69.3498243 163.480634,81.4395544 178.146302,81.4395544 C192.814455,81.4395544 204.705537,69.3498243 204.705537,54.437894 L204.705537,25.7143631 C204.705537,22.6887723 202.271407,20.2127148 199.294287,20.2127148" id="Fill-6" fill="#FFFFFF"></path>
        <path d="M135.876425,3.78988402 C132.900549,3.78988402 130.466418,6.26594158 130.466418,9.29153232 L130.466418,75.3820564 C130.466418,78.4076471 132.900549,80.8824414 135.876425,80.8824414 C138.853545,80.8824414 141.287675,78.4076471 141.287675,75.3820564 L141.287675,9.29153232 C141.287675,6.26594158 138.853545,3.78988402 135.876425,3.78988402" id="Fill-8" fill="#FFFFFF"></path>
        <path d="M324.742097,20.2127148 C321.764978,20.2127148 319.33209,22.6887723 319.33209,25.7143631 L319.33209,75.9379061 C319.33209,78.9634968 321.764978,81.4395544 324.742097,81.4395544 C327.719216,81.4395544 330.152104,78.9634968 330.152104,75.9379061 L330.152104,25.7143631 C330.152104,22.6887723 327.719216,20.2127148 324.742097,20.2127148" id="Fill-10" fill="#FFFFFF"></path>
        <path d="M114.80175,20.2127148 C111.825873,20.2127148 109.391743,22.6887723 109.391743,25.7143631 L109.391743,54.437894 C109.391743,63.273377 102.345313,70.4362578 93.6550075,70.4362578 C84.963459,70.4362578 77.9182724,63.273377 77.9182724,54.437894 L77.9182724,25.7143631 C77.9182724,22.6887723 75.4828993,20.2127148 72.5070224,20.2127148 C69.5311455,20.2127148 67.0970149,22.6887723 67.0970149,25.7143631 L67.0970149,54.437894 C67.0970149,69.3498243 78.9868545,81.4395544 93.6550075,81.4395544 C108.321918,81.4395544 120.213,69.3498243 120.213,54.437894 L120.213,25.7143631 C120.213,22.6887723 117.777627,20.2127148 114.80175,20.2127148" id="Fill-12" fill="#FFFFFF"></path>
        <path d="M282.567896,20.2127148 C273.926049,20.2127148 266.270776,24.4295924 261.41991,30.9279802 C256.57153,24.4295924 248.916257,20.2127148 240.27441,20.2127148 C225.606257,20.2127148 213.716418,32.3024448 213.716418,47.2143751 L213.716418,75.9379061 C213.716418,78.9634968 216.150549,81.4395544 219.126425,81.4395544 C222.103545,81.4395544 224.537675,78.9634968 224.537675,75.9379061 L224.537675,47.2143751 C224.537675,38.3788922 231.582862,31.2160114 240.27441,31.2160114 C248.964716,31.2160114 256.009903,38.3788922 256.009903,47.2143751 L256.009903,75.9379061 C256.009903,77.4513331 256.618746,78.8257977 257.599108,79.8238005 C258.57947,80.82054 259.932593,81.4395544 261.41991,81.4395544 C261.792672,81.4395544 262.156735,81.4016555 262.507131,81.3271211 C262.860011,81.2525867 263.197981,81.1439434 263.522284,81.004981 C264.168403,80.7257929 264.752396,80.3215386 265.243198,79.8238005 C266.22356,78.8257977 266.832403,77.4513331 266.832403,75.9379061 L266.832403,47.2143751 C266.832403,38.3788922 273.87759,31.2160114 282.567896,31.2160114 C291.258201,31.2160114 298.304631,38.3788922 298.304631,47.2143751 L298.304631,75.9379061 C298.304631,78.9634968 300.738761,81.4395544 303.715881,81.4395544 C306.690515,81.4395544 309.125888,78.9634968 309.125888,75.9379061 L309.125888,47.2143751 C309.125888,32.3024448 297.236049,20.2127148 282.567896,20.2127148" id="Fill-14" fill="#FFFFFF"></path>
        <path d="M30.1104067,20.2127148 C13.4802873,20.2127148 0,33.919462 0,50.8261346 L0,99.499615 C0,102.525206 2.43537313,105 5.41125,105 C8.38712687,105 10.8225,102.525206 10.8225,99.499615 L10.8225,50.8261346 C10.8225,39.9959093 19.4581343,31.2160114 30.1104067,31.2160114 C40.7626791,31.2160114 49.3983134,39.9959093 49.3983134,50.8261346 C49.3983134,61.6576231 40.7626791,70.4362578 30.1104067,70.4362578 C27.1221045,70.4362578 24.6991567,72.8996824 24.6991567,75.9379061 C24.6991567,78.9761297 27.1221045,81.4395544 30.1104067,81.4395544 C46.7392836,81.4395544 60.2195709,67.7328072 60.2195709,50.8261346 C60.2195709,33.919462 46.7392836,20.2127148 30.1104067,20.2127148" id="Fill-16" fill="#FFFFFF"></path>
    </g>
</svg>